<svg id='icon-hero-img-bcg' width="623" height="727" viewBox="0 0 623 727" fill="none" xmlns="http://www.w3.org/2000/svg">
<path d="M8.33384 512.315L8.33385 710.615H451.499M29.5133 386.116L8.33384 364.081L8.33383 13.5539L49.0648 13.5539L71.8721 47.5978L435.203 47.5978L462.902 13.5539M11 661H395.51M25 667.794V694.971M25 694.971H58M25 694.971L57.3377 668.339M596.54 711.029H622.529M609.539 727V695.048M18.1918 211.864V205.142H44.181V211.864H18.1918ZM18.1918 168.571V161.849H44.181V168.571H18.1918ZM18.1918 118.536V111.815H44.181V118.536H18.1918ZM18.1918 68.5117V61.7899L44.181 61.7899V68.5117L18.1918 68.5117ZM18.1918 38.8648L18.1918 32.143L44.181 32.143L44.181 38.8648H18.1918ZM18.1918 202.595V191.496H44.181V202.595H18.1918ZM18.1918 182.217V171.118H44.181V182.217H18.1918ZM18.1918 152.56V141.461H44.181V152.56H18.1918ZM18.1918 132.182V121.084H44.181V132.182H18.1918ZM18.1918 109.267L18.1918 98.1687L44.181 98.1687V109.267H18.1918ZM18.1918 88.8895V77.7909H44.181V88.8895H18.1918ZM18.1918 59.2426V48.144L44.181 48.144V59.2426L18.1918 59.2426ZM18.1918 188.949V184.754L44.181 184.754V188.949H18.1918ZM18.1918 159.302V155.107H44.181L44.181 159.302H18.1918ZM18.1918 138.924V134.729H44.181V138.924H18.1918ZM18.1918 95.6316V91.4367H44.181V95.6316H18.1918ZM18.1918 75.2538V71.0589H44.181V75.2537L18.1918 75.2538ZM18.1918 45.5968V41.402L44.181 41.402V45.5968H18.1918ZM18.1918 29.5957V25.4009L44.181 25.4009V29.5957L18.1918 29.5957ZM582.02 717.913V703.307H584.519V717.913H582.02ZM565.922 717.913V703.307H568.421V717.913H565.922ZM547.324 717.913V703.307H549.823V717.913H547.324ZM528.718 717.913V703.307H531.217V717.913H528.718ZM517.701 717.913V703.307H520.2V717.913H517.701ZM576.947 717.913V703.307H581.075V717.913H576.947ZM569.367 717.913V703.307H573.494V717.913H569.367ZM558.341 717.913V703.307H562.469V717.913H558.341ZM550.769 717.913V703.307H554.896V717.913H550.769ZM542.251 717.913V703.307H546.378V717.913H542.251ZM534.671 717.913V703.307H538.798V717.913H534.671ZM523.645 717.913V703.307H527.772V717.913H523.645ZM574.44 717.913V703.307H576.002V717.913H574.44ZM563.414 717.913V703.307H564.976V717.913H563.414ZM555.842 717.913V703.307H557.404V717.913H555.842ZM539.743 717.913V703.307H541.306V717.913H539.743ZM532.171 717.913V703.307H533.733V717.913H532.171ZM521.146 717.913V703.307H522.708V717.913H521.146ZM515.193 717.913V703.307H516.755V717.913H515.193ZM170.485 26.0983L178.591 16.1317H181.987L190.094 26.0983L190.497 25.6029L182.382 15.6364V11.4618L190.497 1.49528L190.094 1L181.987 10.9766H178.591L170.485 1L170.082 1.49529L178.189 11.4618V15.6364L170.082 25.6029L170.485 26.0983ZM238.841 26.0984L246.956 16.1318H250.352L258.458 26.0984L258.853 25.603L250.746 15.6365V11.4619L258.853 1.49536L258.458 1.00008L250.343 10.9767H246.956L238.841 1.00008L238.446 1.49537L246.553 11.4619V15.6365L238.446 25.603L238.841 26.0984ZM307.205 26.0984L315.312 16.1318H318.708L326.815 26.0984L327.217 25.603L319.111 15.6365V11.4619L327.217 1.49536L326.815 1.00008L318.708 10.9767H315.312L307.205 1.00008L306.803 1.49537L314.918 11.4619V15.6365L306.803 25.603L307.205 26.0984ZM389 670.287V652.265H403.66V670.287H389ZM1 495.283L1 477.261H15.6595L15.6595 495.283H1ZM1 456.064L1 438.041H15.6595L15.6595 456.064H1ZM1 416.845L1 398.822H15.6595L15.6595 416.845H1ZM451.268 720.632V700.598L588.129 700.598V720.632H451.268ZM601.341 711.029C601.341 705.47 605.008 700.962 609.53 700.962C614.052 700.962 617.719 705.47 617.719 711.029C617.719 716.589 614.052 721.097 609.53 721.097C605.008 721.097 601.341 716.589 601.341 711.029Z" stroke="#2A2A2A" stroke-miterlimit="10"/>
</svg>
