<svg id='icon-hero-img-bcg-tablet' width="613" height="945" viewBox="0 0 613 945" fill="none" xmlns="http://www.w3.org/2000/svg">
<path d="M8.2214 665.851L8.22141 923.695H444.592M29.0761 501.757L8.2214 473.105L8.22139 17.3236L48.3279 17.3236L70.7855 61.59L428.546 61.59L455.821 17.3235M10.8467 859.182H389.462M24.632 868.016V903.353M24.632 903.353H57.1261M24.632 903.353L56.474 868.725M587.409 924.234H613M600.209 945V903.454M17.9283 275.181V266.441H43.519V275.181H17.9283ZM17.9283 218.889V210.148H43.519V218.889H17.9283ZM17.9283 153.83V145.089H43.519V153.83H17.9283ZM17.9283 88.7838V80.0436L43.519 80.0436V88.7838L17.9283 88.7838ZM17.9283 50.2346L17.9283 41.4945L43.519 41.4944L43.519 50.2346H17.9283ZM17.9283 263.129V248.698H43.519V263.129H17.9283ZM17.9283 236.632V222.201H43.519V236.632H17.9283ZM17.9283 198.07V183.639H43.519V198.07H17.9283ZM17.9283 171.573V157.142H43.519V171.573H17.9283ZM17.9283 141.777L17.9283 127.346L43.519 127.346V141.777H17.9283ZM17.9283 115.281V100.849H43.519V115.281H17.9283ZM17.9283 76.7315V62.3002L43.519 62.3002V76.7314L17.9283 76.7315ZM17.9283 245.386V239.931L43.519 239.931V245.386H17.9283ZM17.9283 206.836V201.382H43.519L43.519 206.836H17.9283ZM17.9283 180.34V174.885H43.519V180.34H17.9283ZM17.9283 124.047V118.593H43.519V124.047H17.9283ZM17.9283 97.5503V92.0959H43.519V97.5503L17.9283 97.5503ZM17.9283 58.9881V53.5337L43.519 53.5337V58.9881H17.9283ZM17.9283 38.1823V32.7279L43.519 32.7279V38.1823L17.9283 38.1823ZM573.112 933.184V914.192H575.573V933.184H573.112ZM557.261 933.184V914.192H559.722V933.184H557.261ZM538.948 933.184V914.192H541.409V933.184H538.948ZM520.627 933.184V914.192H523.088V933.184H520.627ZM509.779 933.184V914.192H512.24V933.184H509.779ZM568.117 933.184V914.192H572.181V933.184H568.117ZM560.653 933.184V914.192H564.717V933.184H560.653ZM549.796 933.184V914.192H553.86V933.184H549.796ZM542.34 933.184V914.192H546.404V933.184H542.34ZM533.953 933.184V914.192H538.017V933.184H533.953ZM526.489 933.184V914.192H530.553V933.184H526.489ZM515.632 933.184V914.192H519.696V933.184H515.632ZM565.648 933.184V914.192H567.186V933.184H565.648ZM554.791 933.184V914.192H556.33V933.184H554.791ZM547.335 933.184V914.192H548.873V933.184H547.335ZM531.484 933.184V914.192H533.022V933.184H531.484ZM524.027 933.184V914.192H525.566V933.184H524.027ZM513.171 933.184V914.192H514.709V933.184H513.171ZM507.31 933.184V914.192H508.848V933.184H507.31ZM167.886 33.6347L175.869 20.6754H179.212L187.195 33.6347L187.591 32.9906L179.601 20.0314V14.6032L187.591 1.64401L187.195 1L179.212 13.9724H175.869L167.886 1L167.49 1.64401L175.472 14.6032V20.0314L167.49 32.9906L167.886 33.6347ZM235.195 33.6348L243.185 20.6755H246.529L254.511 33.6348L254.9 32.9907L246.917 20.0315V14.6033L254.9 1.64411L254.511 1.0001L246.521 13.9725H243.185L235.195 1.00011L234.806 1.64411L242.788 14.6033V20.0315L234.806 32.9907L235.195 33.6348ZM302.511 33.6348L310.493 20.6755H313.837L321.819 33.6348L322.216 32.9907L314.234 20.0315V14.6033L322.216 1.64411L321.819 1.0001L313.837 13.9725H310.493L302.511 1.00011L302.114 1.64411L310.105 14.6033V20.0315L302.114 32.9907L302.511 33.6348ZM383.051 871.258V847.823H397.486V871.258H383.051ZM1 643.704L1 620.27H15.4348L15.4348 643.704H1ZM1 592.709L1 569.274H15.4348L15.4348 592.709H1ZM1 541.713L1 518.278H15.4348L15.4348 541.713H1ZM444.365 936.72V910.67L579.127 910.67V936.72H444.365ZM592.137 924.234C592.137 917.005 595.748 911.143 600.201 911.143C604.653 911.143 608.264 917.005 608.264 924.234C608.264 931.462 604.653 937.324 600.201 937.324C595.748 937.324 592.137 931.462 592.137 924.234Z" stroke="#2A2A2A" stroke-miterlimit="10"/>
</svg>
